<svg width="171" height="36" viewBox="0 0 171 36" fill="none" xmlns="http://www.w3.org/2000/svg">
<path d="M29.0641 15.8399L18.0841 22.0113L20.4525 24.6857L29.0641 19.9542V15.8399Z" fill="#E2010F"/>
<path d="M0 36L17.4386 26.3315L15.0703 23.4512L0 31.8857V36Z" fill="#E2010F"/>
<path d="M29.494 0L9.25702 11.1084L11.6254 13.9887L29.494 4.11429V0Z" fill="#E94F36"/>
<path d="M6.02768 12.9601L0 16.2512V20.5714L8.39607 15.8399L6.02768 12.9601Z" fill="#E94F36"/>
<path d="M29.2796 11.9315V7.81724L13.5043 16.5731L15.9312 19.3369L29.2796 11.9315Z" fill="#E83222"/>
<path fill-rule="evenodd" clip-rule="evenodd" d="M6.88863 8.22857L0 0V5.55419L3.65929 10.0798L6.88863 8.22857ZM10.7945 18.0771L12.9174 20.7773L15.0703 23.4512L17.4386 26.3315L25.4037 36H29.925L20.4525 24.6857L18.0841 22.0113L15.9312 19.3369L13.5043 16.5731L10.7945 18.0771Z" fill="#373948"/>
<path d="M0 27.9773L12.9174 20.7773L10.7945 18.0771L0 24.0685V27.9773Z" fill="#E83222"/>
<path d="M6.02768 12.9601L8.39607 15.8399L11.6254 13.9887L9.25702 11.1084C8.18057 11.669 6.02768 12.8242 6.02768 12.9601Z" fill="#373948"/>
<path d="M88.2814 16.6565C88.2814 15.7277 88.5816 14.9536 88.8819 14.1796C89.3323 13.2508 89.783 12.322 90.5337 11.548C91.2845 10.774 92.0346 10.1547 92.9356 9.84508C93.8365 9.38068 94.8875 9.22603 95.9386 9.22603C96.8395 9.22603 97.5904 9.38075 98.3412 9.53555C99.092 9.84515 99.693 10.1549 100.294 10.4645C100.894 10.7741 101.494 11.3932 102.095 11.8576L103.597 10.3096C103.146 9.84515 102.545 9.38068 102.095 9.07107C101.645 8.60667 101.044 8.29715 100.443 7.98755C99.8426 7.67795 99.2423 7.5233 98.4915 7.3685C97.7407 7.2137 96.9898 7.05859 96.0889 7.05859C94.8877 7.05859 93.8371 7.21347 92.786 7.52307C91.7349 7.83267 90.8336 8.29707 90.0828 9.07107C89.3321 9.69028 88.5814 10.4643 87.9808 11.3931C87.3802 12.3219 86.9299 13.2508 86.6296 14.1796C86.3293 15.2632 86.1787 16.3469 86.1787 17.4305C86.1787 17.5853 86.1787 17.7398 86.1787 17.8946L88.2814 16.6565ZM95.789 27.9566C96.9903 27.9566 98.0407 27.8021 98.9417 27.4925C99.8426 27.1829 100.744 26.8733 101.495 26.2541C102.245 25.7897 102.996 25.1705 103.597 24.3965L102.095 22.8485C101.494 23.4677 100.894 23.9321 100.294 24.3965C99.693 24.8609 98.9417 25.1703 98.1909 25.3251C97.4401 25.4799 96.69 25.6346 95.789 25.6346C94.738 25.6346 93.6869 25.48 92.786 25.0156C91.8851 24.5512 91.1342 23.9318 90.3834 23.3126C89.6327 22.5386 89.182 21.6099 88.7316 20.6811C88.5814 20.2167 88.4316 19.5977 88.2814 18.9785L86.1787 20.2166C86.1787 20.3714 86.329 20.5263 86.329 20.6811C86.6293 21.7647 87.0796 22.6937 87.6802 23.6225C88.2808 24.5513 89.0322 25.1704 89.783 25.7896C90.5337 26.4088 91.4343 26.873 92.4854 27.1826C93.5365 27.8018 94.5878 27.9566 95.789 27.9566Z" fill="#373948"/>
<path d="M50.7529 16.9644L58.861 27.6455H61.5635L52.5543 15.8809L50.7529 16.9644Z" fill="#373948"/>
<path d="M44.8877 20.5252V27.6458H47.14V19.1318L44.8877 20.5252ZM47.14 7.36719H44.8877V15.2618L47.14 14.0233V7.36719Z" fill="#373948"/>
<path fill-rule="evenodd" clip-rule="evenodd" d="M44.8877 16.6552L60.6537 7.36719V9.68919L44.8877 18.9772V16.6552Z" fill="#373948"/>
<path d="M82.4347 27.6458H84.8372L75.9784 7.36719H73.8764L65.0176 27.6458H67.2699C69.8224 21.7634 72.3745 15.8811 74.927 9.99872C76.4286 13.5591 77.9301 16.9648 79.4316 20.5252H71.924L71.0237 22.5373H80.1824L82.4347 27.6458Z" fill="#373948"/>
<path d="M145.642 27.6458H148.045L139.186 7.36719H137.084L128.225 27.6458H130.477C133.029 21.7634 135.582 15.8811 138.135 9.99872C139.636 13.5591 141.138 16.9648 142.639 20.5252H135.132L134.231 22.5373H143.39L145.642 27.6458Z" fill="#373948"/>
<path d="M150.604 25.4788V29.6583H152.706L152.857 27.6458H154.358H166.971H168.623V29.6583H170.574L170.875 25.4788H168.623H166.22H160.815H155.109L160.664 9.99872L165.469 23.4663H167.872L161.866 7.36719H159.614L152.857 25.4788H150.604Z" fill="#373948"/>
<path d="M113.819 16.9644L121.927 27.6455H124.78L115.771 15.8809L113.819 16.9644Z" fill="#373948"/>
<path d="M108.105 20.5252V27.6458H110.358V19.1318L108.105 20.5252ZM110.358 7.36719H108.105V15.2618L110.358 14.0233V7.36719Z" fill="#373948"/>
<path fill-rule="evenodd" clip-rule="evenodd" d="M108.105 16.6552L123.871 7.36719V9.68919L108.105 18.9772V16.6552Z" fill="#373948"/>
</svg>
