<svg width="792" height="920" viewBox="0 0 792 920" fill="none" xmlns="http://www.w3.org/2000/svg">
<g opacity="0.03" clip-path="url(#clip0_740_2570)">
<path d="M768.297 405.37L477.83 562.906L540.484 631.174L768.297 510.394V405.37Z" fill="#373948"/>
<path d="M-0.572754 919.989L460.755 673.186L398.101 599.661L-0.572754 814.965V919.989Z" fill="#373948"/>
<path d="M779.671 1.03125L244.316 284.59L306.97 358.114L779.671 106.055V1.03125Z" fill="#373948"/>
<path d="M158.885 331.859L-0.572754 415.87V526.15L221.54 405.37L158.885 331.859Z" fill="#373948"/>
<path d="M773.998 305.603V200.579L356.674 424.086L420.876 494.638L773.998 305.603Z" fill="#373948"/>
<path fill-rule="evenodd" clip-rule="evenodd" d="M181.661 211.079L-0.572754 1.03125V142.811L96.2312 258.334L181.661 211.079ZM284.988 462.479L341.147 531.406L398.101 599.661L460.755 673.186L671.466 919.989H791.073L540.484 631.174L477.83 562.906L420.876 494.638L356.674 424.086L284.988 462.479Z" fill="#373948"/>
<path d="M-0.572754 715.198L341.147 531.406L284.988 462.479L-0.572754 615.417V715.198Z" fill="#373948"/>
<path d="M158.885 331.859L221.54 405.37L306.97 358.114L244.316 284.59C215.839 298.901 158.885 328.39 158.885 331.859Z" fill="#373948"/>
</g>
<defs>
<clipPath id="clip0_740_2570">
<rect width="792" height="920" fill="white"/>
</clipPath>
</defs>
</svg>
