<svg width="1920" height="980" viewBox="0 0 1920 980" fill="none" xmlns="http://www.w3.org/2000/svg">
<rect width="1920" height="980" fill="url(#paint0_linear_740_2561)"/>
<g opacity="0.03" clip-path="url(#clip0_740_2561)">
<path d="M798.297 435.37L507.83 592.906L570.484 661.174L798.297 540.394V435.37Z" fill="#373948"/>
<path d="M29.4272 949.989L490.755 703.186L428.101 629.661L29.4272 844.965V949.989Z" fill="#373948"/>
<path d="M809.671 31.0312L274.316 314.59L336.97 388.114L809.671 136.055V31.0312Z" fill="#373948"/>
<path d="M188.885 361.859L29.4272 445.87V556.15L251.54 435.37L188.885 361.859Z" fill="#373948"/>
<path d="M803.998 335.603V230.579L386.674 454.086L450.876 524.638L803.998 335.603Z" fill="#373948"/>
<path fill-rule="evenodd" clip-rule="evenodd" d="M211.661 241.079L29.4272 31.0312V172.811L126.231 288.334L211.661 241.079ZM314.988 492.479L371.147 561.406L428.101 629.661L490.755 703.186L701.466 949.989H821.073L570.484 661.174L507.83 592.906L450.876 524.638L386.674 454.086L314.988 492.479Z" fill="#373948"/>
<path d="M29.4272 745.198L371.147 561.406L314.988 492.479L29.4272 645.417V745.198Z" fill="#373948"/>
<path d="M188.885 361.859L251.54 435.37L336.97 388.114L274.316 314.59C245.839 328.901 188.885 358.39 188.885 361.859Z" fill="#373948"/>
</g>
<defs>
<linearGradient id="paint0_linear_740_2561" x1="-118.5" y1="113" x2="1764" y2="360.5" gradientUnits="userSpaceOnUse">
<stop stop-color="#EAF6FF"/>
<stop offset="1" stop-color="white"/>
</linearGradient>
<clipPath id="clip0_740_2561">
<rect width="792" height="920" fill="white" transform="translate(30 30)"/>
</clipPath>
</defs>
</svg>
