<svg width="42" height="50" viewBox="0 0 42 50" fill="none" xmlns="http://www.w3.org/2000/svg">
<path d="M40.7917 21.9999L25.3812 30.5713L28.7052 34.2857L40.7917 27.7141V21.9999Z" fill="#E2010F"/>
<path d="M0 50L24.4753 36.5716L21.1512 32.5711L0 44.2857V50Z" fill="#E2010F"/>
<path d="M41.3951 0L12.9923 15.4283L16.3164 19.4287L41.3951 5.71429V0Z" fill="#E94F36"/>
<path d="M8.4599 18.0001L0 22.5711V28.5714L11.784 21.9999L8.4599 18.0001Z" fill="#E94F36"/>
<path d="M41.0941 16.5716V10.8573L18.9534 23.0182L22.3596 26.8569L41.0941 16.5716Z" fill="#E83222"/>
<path fill-rule="evenodd" clip-rule="evenodd" d="M9.66825 11.4286L0 0V7.71415L5.13584 13.9997L9.66825 11.4286ZM15.1502 25.1071L18.1296 28.8574L21.1512 32.5711L24.4753 36.5716L35.6543 50H42L28.7052 34.2857L25.3812 30.5713L22.3596 26.8569L18.9534 23.0182L15.1502 25.1071Z" fill="#373948"/>
<path d="M0 38.8574L18.1296 28.8574L15.1502 25.1071L0 33.4284V38.8574Z" fill="#E83222"/>
<path d="M8.4599 18.0001L11.784 21.9999L16.3164 19.4287L12.9923 15.4283C11.4815 16.2069 8.4599 17.8114 8.4599 18.0001Z" fill="#373948"/>
</svg>
