<svg width="572" height="384" viewBox="0 0 572 384" fill="none" xmlns="http://www.w3.org/2000/svg">
<path d="M189.196 364.725C190.261 365.088 191.089 365.677 191.678 366.493C192.267 367.309 192.562 368.329 192.562 369.553C192.562 371.956 191.633 373.803 189.774 375.095C187.938 376.365 185.422 376.999 182.226 376.999H170.768L175.528 353.199H186.068C188.471 353.199 190.318 353.653 191.61 354.559C192.925 355.443 193.582 356.735 193.582 358.435C193.582 359.977 193.174 361.291 192.358 362.379C191.565 363.445 190.511 364.227 189.196 364.725ZM178.35 355.953L176.82 363.569H183.79C185.717 363.569 187.235 363.184 188.346 362.413C189.479 361.62 190.046 360.475 190.046 358.979C190.046 357.959 189.638 357.2 188.822 356.701C188.029 356.203 186.873 355.953 185.354 355.953H178.35ZM182.464 374.245C184.617 374.245 186.272 373.849 187.428 373.055C188.607 372.239 189.196 371.083 189.196 369.587C189.196 368.409 188.777 367.57 187.938 367.071C187.122 366.573 185.887 366.323 184.232 366.323H176.276L174.712 374.245H182.464Z" fill="#D72824"/>
<path d="M217.512 358.979H220.776L217.206 376.999H213.942L217.512 358.979ZM206.36 365.065C210.463 365.065 212.514 366.72 212.514 370.029C212.514 371.412 212.163 372.636 211.46 373.701C210.758 374.744 209.76 375.56 208.468 376.149C207.176 376.716 205.669 376.999 203.946 376.999H196.092L199.696 359.047H202.926L201.736 365.065H206.36ZM203.946 374.551C205.533 374.551 206.814 374.166 207.788 373.395C208.763 372.625 209.25 371.593 209.25 370.301C209.25 369.349 208.933 368.647 208.298 368.193C207.664 367.717 206.689 367.479 205.374 367.479H201.26L199.866 374.551H203.946Z" fill="#D72824"/>
<path d="M252.758 358.979L249.188 376.999H223.518L227.122 358.979H230.386L227.394 374.143H235.384L238.342 358.979H241.606L238.648 374.143H246.536L249.494 358.979H252.758Z" fill="#D72824"/>
<path d="M258.892 369.009V369.213C258.892 370.891 259.368 372.171 260.32 373.055C261.272 373.917 262.7 374.347 264.604 374.347C265.715 374.347 266.757 374.166 267.732 373.803C268.707 373.418 269.523 372.908 270.18 372.273L271.574 374.619C270.69 375.435 269.613 376.07 268.344 376.523C267.075 376.977 265.737 377.203 264.332 377.203C262.564 377.203 261.034 376.886 259.742 376.251C258.45 375.617 257.453 374.71 256.75 373.531C256.047 372.353 255.696 370.97 255.696 369.383C255.696 367.366 256.127 365.553 256.988 363.943C257.872 362.334 259.085 361.076 260.626 360.169C262.19 359.263 263.935 358.809 265.862 358.809C268.31 358.809 270.259 359.512 271.71 360.917C273.183 362.3 273.92 364.193 273.92 366.595C273.92 367.321 273.841 368.125 273.682 369.009H258.892ZM265.726 361.529C264.117 361.529 262.734 361.983 261.578 362.889C260.422 363.796 259.64 365.043 259.232 366.629H270.86C270.951 365.02 270.52 363.773 269.568 362.889C268.639 361.983 267.358 361.529 265.726 361.529Z" fill="#D72824"/>
<path d="M289.445 358.979H292.709L291.179 366.629H301.447L302.977 358.979H306.241L302.637 376.999H299.373L300.903 369.451H290.635L289.105 376.999H285.841L289.445 358.979Z" fill="#D72824"/>
<path d="M329.69 358.979L326.12 376.999H322.992L323.434 374.789C322.618 375.56 321.666 376.161 320.578 376.591C319.513 376.999 318.345 377.203 317.076 377.203C315.535 377.203 314.163 376.897 312.962 376.285C311.761 375.651 310.82 374.744 310.14 373.565C309.46 372.387 309.12 371.004 309.12 369.417C309.12 367.377 309.562 365.553 310.446 363.943C311.33 362.334 312.543 361.076 314.084 360.169C315.648 359.263 317.393 358.809 319.32 358.809C320.861 358.809 322.176 359.081 323.264 359.625C324.375 360.169 325.225 360.974 325.814 362.039L326.426 358.979H329.69ZM317.79 374.347C319.127 374.347 320.329 374.03 321.394 373.395C322.482 372.738 323.321 371.831 323.91 370.675C324.522 369.519 324.828 368.205 324.828 366.731C324.828 365.122 324.363 363.875 323.434 362.991C322.505 362.107 321.179 361.665 319.456 361.665C318.119 361.665 316.917 361.994 315.852 362.651C314.787 363.286 313.948 364.181 313.336 365.337C312.724 366.493 312.418 367.808 312.418 369.281C312.418 370.868 312.883 372.115 313.812 373.021C314.764 373.905 316.09 374.347 317.79 374.347Z" fill="#D72824"/>
<path d="M361.241 358.979L348.457 378.971C347.301 380.785 346.201 382.043 345.159 382.745C344.116 383.448 342.881 383.799 341.453 383.799C340.569 383.799 339.707 383.652 338.869 383.357C338.03 383.085 337.384 382.7 336.931 382.201L338.631 379.787C339.447 380.603 340.467 381.011 341.691 381.011C342.461 381.011 343.141 380.807 343.731 380.399C344.32 379.991 344.932 379.3 345.567 378.325L346.485 376.897L342.133 358.979H345.397L348.865 373.395L357.943 358.979H361.241Z" fill="#D72824"/>
<path d="M373.694 358.809C375.235 358.809 376.606 359.127 377.808 359.761C379.009 360.373 379.95 361.269 380.63 362.447C381.31 363.603 381.65 364.975 381.65 366.561C381.65 368.601 381.208 370.426 380.324 372.035C379.44 373.645 378.216 374.914 376.652 375.843C375.11 376.75 373.376 377.203 371.45 377.203C369.908 377.203 368.582 376.931 367.472 376.387C366.361 375.821 365.511 375.005 364.922 373.939L363.018 383.595H359.754L364.65 358.979H367.778L367.336 361.223C369.013 359.614 371.132 358.809 373.694 358.809ZM371.314 374.347C372.651 374.347 373.852 374.03 374.918 373.395C375.983 372.738 376.822 371.831 377.434 370.675C378.046 369.519 378.352 368.205 378.352 366.731C378.352 365.122 377.887 363.875 376.958 362.991C376.028 362.107 374.702 361.665 372.98 361.665C371.642 361.665 370.43 361.994 369.342 362.651C368.276 363.286 367.438 364.181 366.826 365.337C366.236 366.493 365.942 367.808 365.942 369.281C365.942 370.868 366.406 372.115 367.336 373.021C368.288 373.905 369.614 374.347 371.314 374.347Z" fill="#D72824"/>
<path d="M393.155 377.203C391.455 377.203 389.971 376.886 388.701 376.251C387.432 375.594 386.446 374.676 385.743 373.497C385.041 372.319 384.689 370.959 384.689 369.417C384.689 367.4 385.143 365.587 386.049 363.977C386.956 362.368 388.214 361.11 389.823 360.203C391.433 359.274 393.246 358.809 395.263 358.809C396.963 358.809 398.448 359.127 399.717 359.761C400.987 360.396 401.961 361.303 402.641 362.481C403.344 363.637 403.695 364.997 403.695 366.561C403.695 368.579 403.242 370.403 402.335 372.035C401.429 373.645 400.171 374.914 398.561 375.843C396.975 376.75 395.173 377.203 393.155 377.203ZM393.359 374.347C394.697 374.347 395.898 374.03 396.963 373.395C398.051 372.738 398.89 371.831 399.479 370.675C400.091 369.519 400.397 368.205 400.397 366.731C400.397 365.122 399.933 363.875 399.003 362.991C398.074 362.107 396.748 361.665 395.025 361.665C393.688 361.665 392.487 361.994 391.421 362.651C390.356 363.286 389.517 364.181 388.905 365.337C388.293 366.493 387.987 367.808 387.987 369.281C387.987 370.868 388.452 372.115 389.381 373.021C390.333 373.905 391.659 374.347 393.359 374.347Z" fill="#D72824"/>
<path d="M420.676 367.717C421.606 367.989 422.297 368.431 422.75 369.043C423.204 369.633 423.43 370.415 423.43 371.389C423.43 373.135 422.716 374.506 421.288 375.503C419.883 376.501 417.934 376.999 415.44 376.999H406.6L410.238 358.979H418.466C420.416 358.979 421.9 359.331 422.92 360.033C423.963 360.736 424.484 361.756 424.484 363.093C424.484 364.181 424.144 365.133 423.464 365.949C422.807 366.743 421.878 367.332 420.676 367.717ZM411.87 366.731H416.766C418.081 366.731 419.135 366.448 419.928 365.881C420.744 365.315 421.152 364.578 421.152 363.671C421.152 362.221 420.053 361.495 417.854 361.495H412.89L411.87 366.731ZM415.542 374.483C417.016 374.483 418.172 374.2 419.01 373.633C419.849 373.067 420.268 372.273 420.268 371.253C420.268 370.505 419.996 369.961 419.452 369.621C418.931 369.259 418.092 369.077 416.936 369.077H411.394L410.34 374.483H415.542Z" fill="#D72824"/>
<path d="M430.851 369.009V369.213C430.851 370.891 431.327 372.171 432.279 373.055C433.231 373.917 434.659 374.347 436.563 374.347C437.674 374.347 438.716 374.166 439.691 373.803C440.666 373.418 441.482 372.908 442.139 372.273L443.533 374.619C442.649 375.435 441.572 376.07 440.303 376.523C439.034 376.977 437.696 377.203 436.291 377.203C434.523 377.203 432.993 376.886 431.701 376.251C430.409 375.617 429.412 374.71 428.709 373.531C428.006 372.353 427.655 370.97 427.655 369.383C427.655 367.366 428.086 365.553 428.947 363.943C429.831 362.334 431.044 361.076 432.585 360.169C434.149 359.263 435.894 358.809 437.821 358.809C440.269 358.809 442.218 359.512 443.669 360.917C445.142 362.3 445.879 364.193 445.879 366.595C445.879 367.321 445.8 368.125 445.641 369.009H430.851ZM437.685 361.529C436.076 361.529 434.693 361.983 433.537 362.889C432.381 363.796 431.599 365.043 431.191 366.629H442.819C442.91 365.02 442.479 363.773 441.527 362.889C440.598 361.983 439.317 361.529 437.685 361.529Z" fill="#D72824"/>
<path d="M452.273 358.979H455.537L454.007 366.629H464.275L465.805 358.979H469.069L465.465 376.999H462.201L463.731 369.451H453.463L451.933 376.999H448.669L452.273 358.979Z" fill="#D72824"/>
<path d="M482.25 365.065C486.353 365.065 488.404 366.72 488.404 370.029C488.404 371.412 488.053 372.636 487.35 373.701C486.647 374.744 485.65 375.56 484.358 376.149C483.066 376.716 481.559 376.999 479.836 376.999H471.778L475.382 359.047H478.612L477.422 365.065H482.25ZM479.836 374.551C481.423 374.551 482.703 374.166 483.678 373.395C484.653 372.625 485.14 371.593 485.14 370.301C485.14 369.349 484.823 368.647 484.188 368.193C483.553 367.717 482.579 367.479 481.264 367.479H476.946L475.552 374.551H479.836Z" fill="#D72824"/>
<path d="M495.517 353.199H499.393L495.483 369.485H492.899L495.517 353.199ZM493.001 377.203C492.412 377.203 491.913 376.999 491.505 376.591C491.097 376.183 490.893 375.707 490.893 375.163C490.893 374.483 491.109 373.928 491.539 373.497C491.97 373.067 492.514 372.851 493.171 372.851C493.783 372.851 494.282 373.044 494.667 373.429C495.075 373.815 495.279 374.291 495.279 374.857C495.279 375.515 495.053 376.07 494.599 376.523C494.169 376.977 493.636 377.203 493.001 377.203Z" fill="#D72824"/>
<path d="M384.925 313.647H402.651L337.291 165.592H321.783L256.417 313.647H273.035C291.867 270.699 310.701 227.753 329.534 184.805C340.612 210.8 351.69 235.665 362.768 261.659H307.378L300.73 276.35H368.307L384.925 313.647Z" fill="#373948"/>
<path d="M421.536 297.825V328.34H437.044L438.153 313.647H449.231H542.286H554.473V328.34H568.873L571.091 297.825H554.473H536.747H496.865H454.77L495.756 184.805L531.208 283.132H548.934L504.622 165.592H488.005L438.153 297.825H421.536Z" fill="#373948"/>
<path d="M150.137 235.655L209.958 313.638H231.005L164.537 227.744L150.137 235.655Z" fill="#373948"/>
<path d="M108 261.659V313.647H124.617V251.486L108 261.659ZM124.617 165.592H108V223.231L124.617 214.188V165.592Z" fill="#373948"/>
<path fill-rule="evenodd" clip-rule="evenodd" d="M107.978 233.404L224.298 165.592V182.545L107.978 250.357V233.404Z" fill="#D72824"/>
<path d="M323.865 70.888C323.865 64.0281 326.105 58.3104 328.347 52.5938C331.709 45.7339 335.072 38.8745 340.675 33.1579C346.278 27.4413 351.877 22.8669 358.601 20.5803C365.325 17.1504 373.17 16.0081 381.014 16.0081C387.738 16.0081 393.343 17.1509 398.946 18.2942C404.55 20.5809 409.035 22.8686 413.518 25.1553C418.001 27.4419 422.48 32.0141 426.963 35.444L438.169 24.0108C434.807 20.5809 430.325 17.1504 426.963 14.8637C423.601 11.4338 419.117 9.14767 414.634 6.86103C410.152 4.57439 405.671 3.43219 400.068 2.28887C394.465 1.14555 388.86 0 382.136 0C373.171 0 365.33 1.14388 357.485 3.43052C349.64 5.71716 342.913 9.14711 337.31 14.8637C331.706 19.437 326.104 25.1536 321.622 32.0135C317.139 38.8734 313.778 45.7339 311.537 52.5938C309.295 60.597 308.171 68.6014 308.171 76.6046C308.171 77.748 308.171 78.889 308.171 80.0324L323.865 70.888ZM379.898 154.348C388.864 154.348 396.704 153.207 403.428 150.92C410.152 148.634 416.878 146.347 422.481 141.773C428.085 138.343 433.687 133.771 438.169 128.054L426.963 116.621C422.48 121.194 418.001 124.624 413.518 128.054C409.035 131.484 403.428 133.769 397.824 134.912C392.221 136.056 386.622 137.198 379.898 137.198C372.054 137.198 364.209 136.056 357.485 132.626C350.761 129.196 345.157 124.622 339.553 120.049C333.95 114.332 330.587 107.473 327.225 100.613C326.104 97.1827 324.986 92.6111 323.865 88.0378L308.171 97.1822C308.171 98.3255 309.293 99.4694 309.293 100.613C311.534 108.616 314.895 115.478 319.378 122.337C323.861 129.197 329.468 133.77 335.072 138.343C340.675 142.916 347.397 146.345 355.241 148.632C363.086 153.205 370.933 154.348 379.898 154.348Z" fill="#373948"/>
<path d="M43.7769 73.157L104.292 152.045H124.461L57.2215 65.1543L43.7769 73.157Z" fill="#373948"/>
<path d="M0 99.4634V152.054H16.8099V89.1718L0 99.4634ZM16.8099 2.28125H0V60.5889L16.8099 51.4417V2.28125Z" fill="#373948"/>
<path fill-rule="evenodd" clip-rule="evenodd" d="M0 70.8804L117.67 2.28125V19.431L0 88.0302V70.8804Z" fill="#D72824"/>
<path d="M280.226 152.054H298.158L232.04 2.28125H216.351L150.233 152.054H167.043C186.095 108.608 205.142 65.1632 224.193 21.7171C235.399 48.0135 246.606 73.167 257.813 99.4634H201.78L195.06 114.324H263.416L280.226 152.054Z" fill="#373948"/>
</svg>
