<svg width="274" height="198" viewBox="0 0 274 198" fill="none" xmlns="http://www.w3.org/2000/svg">
<path d="M94.8635 170.535C94.8635 168.599 95.5076 166.985 96.1519 165.371C97.1185 163.434 98.0854 161.498 99.6964 159.884C101.307 158.27 102.917 156.979 104.85 156.333C106.783 155.365 109.039 155.043 111.294 155.043C113.227 155.043 114.838 155.365 116.449 155.688C118.06 156.333 119.35 156.979 120.639 157.625C121.928 158.27 123.215 159.561 124.504 160.529L127.726 157.302C126.759 156.333 125.471 155.365 124.504 154.72C123.538 153.751 122.248 153.106 120.96 152.46C119.671 151.815 118.383 151.492 116.772 151.17C115.161 150.847 113.55 150.523 111.616 150.523C109.039 150.523 106.785 150.846 104.529 151.492C102.274 152.137 100.34 153.106 98.7288 154.72C97.1179 156.011 95.5073 157.624 94.2185 159.561C92.9297 161.498 91.9635 163.434 91.3191 165.371C90.6747 167.63 90.3516 169.89 90.3516 172.149C90.3516 172.472 90.3516 172.794 90.3516 173.117L94.8635 170.535ZM110.973 194.096C113.551 194.096 115.805 193.774 117.738 193.129C119.671 192.483 121.605 191.838 123.216 190.547C124.827 189.578 126.437 188.287 127.726 186.674L124.504 183.446C123.215 184.737 121.928 185.705 120.639 186.674C119.35 187.642 117.738 188.287 116.127 188.61C114.516 188.932 112.906 189.255 110.973 189.255C108.718 189.255 106.462 188.933 104.529 187.964C102.596 186.996 100.985 185.705 99.3739 184.414C97.7629 182.8 96.796 180.863 95.8294 178.927C95.5073 177.958 95.1857 176.668 94.8635 175.377L90.3516 177.958C90.3516 178.281 90.6741 178.604 90.6741 178.927C91.3185 181.186 92.2847 183.123 93.5735 185.06C94.8622 186.996 96.4745 188.287 98.0854 189.578C99.6964 190.869 101.629 191.837 103.884 192.483C106.14 193.774 108.396 194.096 110.973 194.096Z" fill="#373948"/>
<path d="M14.3379 171.181L31.7359 193.451H37.5347L18.2032 168.922L14.3379 171.181Z" fill="#373948"/>
<path d="M1.75195 178.603V193.449H6.58482V175.697L1.75195 178.603ZM6.58482 151.168H1.75195V167.628L6.58482 165.046V151.168Z" fill="#373948"/>
<path fill-rule="evenodd" clip-rule="evenodd" d="M1.75195 170.534L35.582 151.168V156.009L1.75195 175.375V170.534Z" fill="#373948"/>
<path d="M82.3163 193.449H87.4716L68.4627 151.168H63.9523L44.9434 193.449H49.7762C55.2535 181.184 60.7295 168.92 66.2067 156.655C69.4286 164.078 72.6505 171.179 75.8724 178.603H59.7629L57.831 182.798H77.4834L82.3163 193.449Z" fill="#373948"/>
<path d="M217.947 193.449H223.102L204.093 151.168H199.583L180.572 193.449H185.405C190.882 181.184 196.36 168.92 201.837 156.655C205.059 164.078 208.281 171.179 211.503 178.603H195.393L193.46 182.798H213.114L217.947 193.449Z" fill="#373948"/>
<path d="M228.594 188.931V197.646H233.104L233.427 193.449H236.649H263.712H267.257V197.646H271.445L272.09 188.931H267.257H262.101H250.502H238.259L250.18 156.655L260.49 184.735H265.646L252.758 151.168H247.925L233.427 188.931H228.594Z" fill="#373948"/>
<path d="M149.662 171.181L167.06 193.451H173.181L153.85 168.922L149.662 171.181Z" fill="#373948"/>
<path d="M137.4 178.603V193.449H142.233V175.697L137.4 178.603ZM142.233 151.168H137.4V167.628L142.233 165.046V151.168Z" fill="#373948"/>
<path fill-rule="evenodd" clip-rule="evenodd" d="M137.4 170.534L171.23 151.168V156.009L137.4 175.375V170.534Z" fill="#373948"/>
<path d="M100.774 54.8934L62.7034 76.2806L70.9154 85.5488L100.774 69.1516V54.8934Z" fill="#E2010F"/>
<path d="M0 124.759L60.4654 91.2524L52.2534 81.2706L0 110.5V124.759Z" fill="#E2010F"/>
<path d="M102.265 0L32.0971 38.4963L40.3091 48.478L102.265 14.2581V0Z" fill="#E94F36"/>
<path d="M20.8999 44.9135L0 56.3189V71.2906L29.1119 54.8934L20.8999 44.9135Z" fill="#E94F36"/>
<path d="M101.522 41.3489V27.0908L46.8237 57.4344L55.2386 67.0125L101.522 41.3489Z" fill="#E83222"/>
<path fill-rule="evenodd" clip-rule="evenodd" d="M23.8851 28.5163L0 0V19.2481L12.6879 34.9317L23.8851 28.5163ZM37.428 62.6466L44.7887 72.0042L52.2534 81.2706L60.4654 91.2524L88.0829 124.759H103.76L70.9154 85.5488L62.7034 76.2806L55.2386 67.0125L46.8237 57.4344L37.428 62.6466Z" fill="#373948"/>
<path d="M0 96.956L44.7887 72.0042L37.428 62.6466L0 83.4097V96.956Z" fill="#E83222"/>
<path d="M20.8999 44.9135L29.1119 54.8934L40.3091 48.478L32.0971 38.4963C28.3647 40.4391 20.8999 44.4425 20.8999 44.9135Z" fill="#373948"/>
</svg>
